<svg xmlns="http://www.w3.org/2000/svg" viewBox="0 0 512 512"><path d="M256 0c141.392 0 256 114.608 256 256S397.392 512 256 512 0 397.392 0 256 114.608 0 256 0Zm-80 265.871973c-4.970395-.008469-9.740125 1.960059-13.25773 5.471661-3.517605 3.511603-5.49427 8.277964-5.49427 13.248366 0 70.032 56.896 126.8 127.072 126.8 6.866838.284091 13.337205-3.217435 16.855266-9.121452 3.518061-5.904018 3.518061-13.261078 0-19.165096-3.518061-5.904017-9.988428-9.405543-16.855266-9.121452-49.416624.044206-89.515007-39.975385-89.568-89.392.000007-4.970402-1.976665-9.736763-5.49427-13.248366-3.517605-3.511602-8.287335-5.48013-13.25773-5.471661Zm216.704-57.184c-4.970395-.008469-9.740125 1.960059-13.25773 5.471661-3.517605 3.511603-5.494277 8.277964-5.49427 13.248366-.06182 49.416618-40.167372 89.429051-89.584 89.376-10.338771 0-18.72 8.381229-18.72 18.72s8.381229 18.72 18.72 18.72c70.192 0 127.088-56.8 127.088-126.832-.004239-4.967629-1.982784-9.729878-5.499928-13.238019-3.517144-3.508141-8.284448-5.474474-13.252072-5.466008ZM227.68 157.808c-70.176 0-127.072 56.784-127.072 126.816 0 10.336 8.4 18.720027 18.752 18.720027 4.970395.008469 9.740125-1.960059 13.25773-5.471661 3.517605-3.511603 5.494277-8.277964 5.49427-13.248366.052993-49.416615 40.151376-89.436206 89.568-89.392 6.815625.19932 13.200582-3.322931 16.667236-9.194454 3.466653-5.871523 3.466653-13.163569 0-19.035092-3.466654-5.871523-9.851611-9.393774-16.667236-9.194454Zm.304-57.248027c-4.970395-.008469-9.740125 1.960059-13.25773 5.471661-3.517605 3.511603-5.49427 8.277964-5.49427 13.248366 0 10.32 8.4 18.704 18.752 18.704 23.733697-.025474 46.505443 9.378276 63.305704 26.142531 16.800262 16.764255 26.252849 39.515772 26.278296 63.249469 0 10.356444 8.395556 18.752 18.752 18.752s18.752-8.395556 18.752-18.752c0-70.032-56.912-126.816027-127.088-126.816027Z"/></svg>