<svg xmlns="http://www.w3.org/2000/svg" viewBox="0 0 512 512"><g fill-rule="evenodd"><path d="M256 44.940678c61.831099 0 117.452245 26.58797 156.054045 68.954517l-96.265909 16.045483v24.491525l136.837975 24.703586c9.318097 23.818619 14.433211 49.744065 14.433211 76.864211 0 93.368588-60.627943 172.576762-144.66328 200.403972l-3.111236-27.268557-86.387943 36.673937c-8.906184-.969622-17.645971-2.493321-26.184168-4.535902l126.2158-53.580456.175282.415269c4.791546 3.740924 11.416049 4.837623 17.40827 2.294076 8.788956-3.73069 12.88949-13.879869 9.1588-22.668825-3.730691-8.788956-13.87987-12.889491-22.668826-9.1588-6.678695 2.834938-10.650097 9.376183-10.535155 16.210465l-10.587747 4.493236-1.493-13.086-123.588 52.461-2.282277 17.386931C105.045768 427.89193 44.940678 348.965113 44.940678 256c0-27.226598 5.155348-53.249099 14.5431316-77.144592l135.2873764-24.423205v-24.491525L99.7568399 114.10303C138.365977 71.61562 194.067855 44.940678 256 44.940678Zm103.670847 297.771649c-3.730691-8.788956-13.87987-12.88949-22.668826-9.1588-6.678695 2.834938-10.650097 9.376183-10.535155 16.210465l-15.485747 6.572423-1.493-13.086-112.437 47.727-4.08 31.102 139.957376-59.407608.175696.415593c4.791513 3.740664 11.415808 4.837226 17.407856 2.293753 8.788956-3.730691 12.88949-13.87987 9.1588-22.668826Zm-18.728402 45.145444c3.662065-1.554454 7.89089.154102 9.445344 3.816167 1.554455 3.662065-.154101 7.89089-3.816166 9.445344-3.662065 1.554454-7.89089-.154102-9.445344-3.816167-1.554455-3.662065.154101-7.890889 3.816166-9.445344Zm18.728402-90.16663c-3.730691-8.788956-13.87987-12.889491-22.668826-9.1588-6.678695 2.834938-10.650097 9.376183-10.535155 16.210465l-20.383747 8.651609-1.493-13.086-101.285 42.994-4.08 31.101 133.703376-56.752794.175696.415593c4.791513 3.740663 11.415808 4.837226 17.407856 2.293752 8.788956-3.73069 12.88949-13.879869 9.1588-22.668825Zm-18.728402 45.145444c3.662065-1.554455 7.89089.154101 9.445344 3.816167 1.554455 3.662065-.154101 7.890889-3.816166 9.445343-3.662065 1.554455-7.89089-.154101-9.445344-3.816166-1.554455-3.662065.154101-7.89089 3.816166-9.445344Zm18.728402-90.16663c-3.730691-8.788957-13.87987-12.889491-22.668826-9.1588-6.678695 2.834937-10.650097 9.376182-10.535155 16.210465l-25.281747 10.730795-1.492-13.086-90.135 38.26-4.08 31.102 127.450376-54.098981.175696.415594c4.791513 3.740663 11.415808 4.837226 17.407856 2.293752 8.788956-3.730691 12.88949-13.879869 9.1588-22.668825Zm-18.728402 45.145443c3.662065-1.554454 7.89089.154102 9.445344 3.816167 1.554455 3.662065-.154101 7.89089-3.816166 9.445344-3.662065 1.554454-7.89089-.154102-9.445344-3.816167-1.554455-3.662065.154101-7.890889 3.816166-9.445344Zm18.728402-90.16663c-3.730691-8.788956-13.87987-12.88949-22.668826-9.1588-6.678695 2.834938-10.650097 9.376183-10.535155 16.210465l-30.179747 12.809982L294.689174 213.5h-74.357572l-8.598483 65.552415 121.195376-51.444167.175696.415593c4.791513 3.740663 11.415808 4.837226 17.407856 2.293753 8.788956-3.730691 12.88949-13.87987 9.1588-22.668826Zm-18.728402 45.145444c3.662065-1.554454 7.89089.154102 9.445344 3.816167 1.554455 3.662065-.154101 7.890889-3.816166 9.445344-3.662065 1.554454-7.89089-.154102-9.445344-3.816167-1.554455-3.662065.154101-7.89089 3.816166-9.445344Zm0-45.021186c3.662065-1.554455 7.89089.154101 9.445344 3.816166 1.554455 3.662065-.154101 7.89089-3.816166 9.445344-3.662065 1.554455-7.89089-.154102-9.445344-3.816167-1.554455-3.662065.154101-7.890889 3.816166-9.445343Zm-35.239055-33.171331H204.855932v11.525424h-10.084746v15.847457h121.01695v-15.847457H305.70339v-11.525424ZM255.279661 73.7542373l-43.220339 15.8474576-17.288136 27.3728811 17.288-.000339.000136 48.98339h14.40678l-.000916-48.98339h57.628l.000034 48.98339H298.5l-.000814-48.98339 17.28895.000339L298.5 89.6016949l-43.220339-15.8474576Z"/><path fill-rule="nonzero" d="M256 1c140.832611 0 255 114.167389 255 255 0 140.832611-114.167389 255-255 255C115.167389 511 1 396.832611 1 256 1 115.167389 115.167389 1 256 1Zm0 24.4915254C128.693685 25.4915254 25.4915254 128.693685 25.4915254 256S128.693685 486.508475 256 486.508475 486.508475 383.306315 486.508475 256 383.306315 25.4915254 256 25.4915254Z"/></g></svg>