<svg xmlns="http://www.w3.org/2000/svg" viewBox="0 0 512 512"><path d="M13.489 11.7176051V500.282938H48.64v11.717334H0V.00027173h48.64V11.7176051H13.489ZM163.741333 166.597605v24.713333h.689667c6.596667-9.452 14.572333-16.738333 23.827667-21.858333 9.255-5.218667 19.987666-7.778667 32-7.778667 11.52 0 22.055 2.265 31.606 6.695334 9.550666 4.431 16.738666 12.406666 21.76 23.631 5.415333-7.975334 12.8-15.064667 22.055333-21.169 9.255333-6.104667 20.282667-9.157334 32.984667-9.157334 9.649333 0 18.609333 1.181667 26.88 3.545 8.270666 2.362667 15.261666 6.104667 21.169333 11.322667 5.907333 5.218667 10.436667 11.914 13.784667 20.283333 3.249 8.369 4.922666 18.412 4.922666 30.227667v122.191h-50.116666V245.760272c0-6.104667-.196667-11.913667-.689334-17.329-.492-5.415667-1.772-10.142-3.84-14.08-2.166333-4.037334-5.218666-7.187667-9.354-9.551-4.135-2.362667-9.747333-3.544667-16.738-3.544667-7.089333 0-12.8 1.378333-17.132333 4.037333-4.332333 2.756667-7.778667 6.202667-10.24 10.633667-2.462 4.332333-4.135667 9.255-4.923333 14.867333-.787667 5.514-1.28 11.126334-1.28 16.738667v101.711h-50.117334v-102.4c0-5.415667-.098-10.732333-.393333-16.049667-.197-5.316666-1.28-10.141333-3.052333-14.670333-1.772334-4.431-4.726-8.074333-8.861667-10.732333-4.135333-2.658667-10.141667-4.037334-18.215333-4.037334-2.362667 0-5.514.492667-9.354 1.575334-3.84 1.083333-7.68 3.052333-11.322667 6.006666-3.643333 2.953334-6.794333 7.187667-9.354333 12.701-2.56 5.514334-3.84 12.8-3.84 21.76v105.944667H116.48v-182.744h47.261333ZM498.511 500.282938V11.7176051H463.36V.00027173H512V512.000272h-48.64v-11.717334h35.151Z"/></svg>