<svg xmlns="http://www.w3.org/2000/svg" viewBox="0 0 512 512"><path d="M257.727537.00579688C150.356957-.7195286 49.8983711 66.671742 13.589067 173.934581c-45.3332967 133.886551 26.453312 279.164978 160.341204 324.476488 133.887892 45.332843 279.167775-26.453047 324.479738-160.339598 36.842637-108.798822-3.66933-225.106897-91.967926-289.2128695l2.687998 54.3354115c44.053298 48.68214 61.439951 117.588061 39.509302 182.376693-32.725307 96.68162-140.671887 147.518403-241.066473 113.513438C107.135658 365.100512 52.2663692 259.160325 85.0130094 162.457372 107.007658 97.4767419 162.98628 53.2105544 227.818227 41.4986811L262.847533.1124624C261.134899.03449293 259.420597 0 257.706203.00579687h.021334Zm75.263939 23.33841402c-.901879-.02685-1.798368.148073-2.623998.5119945l-.085333.0213331c-.867931.3455981-1.658397.8604835-2.325332 1.5146503-3.093331 3.0293005-14.015988 17.6638088-14.015988 17.6638088l-23.807981 29.4823476-27.733311 33.8129678-47.615962 59.220692s-21.845315 27.263705-17.023986 60.820675c4.82133 33.578303 29.781309 49.91946 49.15196 56.490055 19.349318 6.549263 49.109294 8.703906 73.343941-15.018504 24.213314-23.72241 23.423981-58.666032 23.423981-58.666032l-1.855998-75.945844-1.493332-43.7328603-1.002666-37.8662568s.213333-18.2611357-.426667-22.5490893c-.116305-.798031-.368868-1.5701448-.746666-2.282642l-.127999-.2559972-.149334-.2346641c-1.005153-1.7706961-2.851093-2.899207-4.885329-2.9866344Z"/></svg>